<svg id="Layer_1" data-name="Layer 1" xmlns="http://www.w3.org/2000/svg" xmlns:xlink="http://www.w3.org/1999/xlink" viewBox="0 0 222.51 222.51"><defs><style>.cls-1{fill:none;}.cls-2{fill:#523629;}.cls-3{clip-path:url(#clip-path);}.cls-4{fill:#fff;}</style><clipPath id="clip-path"><rect class="cls-1" x="42.92" y="52.27" width="164.83" height="92.39"/></clipPath></defs><title>Artboard 1</title><rect class="cls-2" width="222.51" height="222.51"/><g class="cls-3"><path class="cls-4" d="M43.44,176.3a5.27,5.27,0,0,1,.32-1.92A4,4,0,0,1,44.6,173a3.42,3.42,0,0,1,1.21-.81,3.78,3.78,0,0,1,1.4-.27,3.18,3.18,0,0,1,2.56,1,4.79,4.79,0,0,1,.89,3.17v.25a2.38,2.38,0,0,1,0,.28H45a3,3,0,0,0,.75,2,2.74,2.74,0,0,0,2,.67,5.37,5.37,0,0,0,1.31-.14,4.54,4.54,0,0,0,.8-.26l.21,1.24a4.48,4.48,0,0,1-.95.3,6.67,6.67,0,0,1-1.54.16,4.83,4.83,0,0,1-1.87-.33,3.46,3.46,0,0,1-1.3-.9,3.64,3.64,0,0,1-.75-1.36,5.73,5.73,0,0,1-.25-1.73m5.68-.81a2.48,2.48,0,0,0-.5-1.65,1.73,1.73,0,0,0-1.42-.64,1.94,1.94,0,0,0-.9.2,2.13,2.13,0,0,0-.66.52,2.34,2.34,0,0,0-.42.73,3.59,3.59,0,0,0-.2.84Z"/><path class="cls-4" d="M58.08,180.43q-.18-.35-.43-.78c-.17-.29-.36-.58-.56-.88s-.41-.6-.62-.9l-.62-.84q-.3.4-.62.85c-.21.3-.42.6-.61.91s-.38.6-.55.88-.31.54-.43.76H52.11a20.38,20.38,0,0,1,1.33-2.2q.77-1.12,1.53-2.14l-2.74-3.93h1.67l2,2.9,2-2.9h1.58L56.77,176q.76,1,1.57,2.19a18.92,18.92,0,0,1,1.36,2.25Z"/><path class="cls-4" d="M68.88,176.31a5.83,5.83,0,0,1-.25,1.73,3.92,3.92,0,0,1-.72,1.37,3.28,3.28,0,0,1-1.17.89,3.77,3.77,0,0,1-1.58.32,4,4,0,0,1-2.08-.56v3.31H61.59v-11q.52-.13,1.31-.28a9.84,9.84,0,0,1,1.82-.15,4.66,4.66,0,0,1,1.72.3,3.7,3.7,0,0,1,1.3.86,3.79,3.79,0,0,1,.83,1.36,5.23,5.23,0,0,1,.29,1.81m-1.54,0a3.17,3.17,0,0,0-.72-2.23,2.47,2.47,0,0,0-1.91-.78,8.65,8.65,0,0,0-1,0,4.45,4.45,0,0,0-.6.11v5.22a3.08,3.08,0,0,0,.78.43,2.92,2.92,0,0,0,1.11.21,2.38,2.38,0,0,0,1.09-.23,2,2,0,0,0,.74-.64,2.7,2.7,0,0,0,.41-1,5.21,5.21,0,0,0,.13-1.18"/><path class="cls-4" d="M70.84,176.3a5.27,5.27,0,0,1,.32-1.92A4,4,0,0,1,72,173a3.42,3.42,0,0,1,1.21-.81,3.78,3.78,0,0,1,1.4-.27,3.18,3.18,0,0,1,2.56,1,4.79,4.79,0,0,1,.89,3.17v.25a2.38,2.38,0,0,1,0,.28H72.38a3,3,0,0,0,.75,2,2.74,2.74,0,0,0,2,.67,5.38,5.38,0,0,0,1.31-.14,4.54,4.54,0,0,0,.8-.26l.21,1.24a4.48,4.48,0,0,1-.95.3,6.67,6.67,0,0,1-1.54.16,4.83,4.83,0,0,1-1.87-.33,3.46,3.46,0,0,1-1.3-.9,3.64,3.64,0,0,1-.75-1.36,5.73,5.73,0,0,1-.25-1.73m5.68-.81a2.48,2.48,0,0,0-.5-1.65,1.73,1.73,0,0,0-1.42-.64,1.94,1.94,0,0,0-.9.2,2.13,2.13,0,0,0-.66.52,2.34,2.34,0,0,0-.42.73,3.59,3.59,0,0,0-.2.84Z"/><path class="cls-4" d="M83.58,172l.44,0,.49.06.44.08.29.07L85,173.5a4.93,4.93,0,0,0-.58-.15,5.11,5.11,0,0,0-1-.09,3.9,3.9,0,0,0-.82.09l-.53.12v7H80.53V172.5a10,10,0,0,1,1.31-.36,8.31,8.31,0,0,1,1.75-.17"/><path class="cls-4" d="M88.39,172.15h3.13v1.24H88.39v3.82a4.55,4.55,0,0,0,.1,1,1.52,1.52,0,0,0,.29.64,1,1,0,0,0,.48.33,2.1,2.1,0,0,0,.67.09,3.17,3.17,0,0,0,1.07-.15l.56-.21.29,1.22a5.18,5.18,0,0,1-.78.28,4.4,4.4,0,0,1-1.27.17,3.86,3.86,0,0,1-1.39-.21,2,2,0,0,1-.88-.65,2.56,2.56,0,0,1-.47-1.06,7,7,0,0,1-.14-1.46v-7.38l1.48-.26Z"/><path class="cls-4" d="M95.66,179.36a2.92,2.92,0,0,0,1.34-.24.81.81,0,0,0,.44-.76,1,1,0,0,0-.43-.86,6.77,6.77,0,0,0-1.42-.72l-.92-.39a3.21,3.21,0,0,1-.76-.47,2,2,0,0,1-.51-.65,2.06,2.06,0,0,1-.19-.94,2.11,2.11,0,0,1,.81-1.74,3.46,3.46,0,0,1,2.21-.65,6.35,6.35,0,0,1,.7,0l.65.1.53.12.36.11-.27,1.27a3.7,3.7,0,0,0-.75-.26,4.78,4.78,0,0,0-1.23-.14,2.24,2.24,0,0,0-1.08.25.82.82,0,0,0-.46.77,1.07,1.07,0,0,0,.1.48,1.09,1.09,0,0,0,.32.37,2.72,2.72,0,0,0,.53.31c.21.09.47.2.76.3s.74.3,1.05.44a3.22,3.22,0,0,1,.79.5,1.93,1.93,0,0,1,.5.69,2.54,2.54,0,0,1,.17,1,2,2,0,0,1-.85,1.73,4.24,4.24,0,0,1-2.43.59,6.34,6.34,0,0,1-1.72-.18,8.86,8.86,0,0,1-.84-.28l.27-1.27.81.29a4.65,4.65,0,0,0,1.48.19"/><path class="cls-4" d="M105.9,170.66a1,1,0,0,1-.68-.26,1,1,0,0,1,0-1.42,1,1,0,0,1,1.35,0,1,1,0,0,1,0,1.42,1,1,0,0,1-.68.26m.75,9.77h-1.48v-8.27h1.48Z"/><path class="cls-4" d="M109.53,172.39q.51-.13,1.35-.27a11.52,11.52,0,0,1,1.94-.14,4.19,4.19,0,0,1,1.64.28,2.57,2.57,0,0,1,1,.78,3,3,0,0,1,.55,1.2,7,7,0,0,1,.16,1.54v4.65h-1.48V176.1a7.06,7.06,0,0,0-.1-1.3,2.15,2.15,0,0,0-.34-.87,1.34,1.34,0,0,0-.64-.49,2.79,2.79,0,0,0-1-.15h-.49l-.48,0-.41.06-.26,0v7h-1.48Z"/><path class="cls-4" d="M122.55,176.3a5.3,5.3,0,0,1,.32-1.92,4,4,0,0,1,.84-1.36,3.4,3.4,0,0,1,1.21-.81,3.78,3.78,0,0,1,1.4-.27,3.18,3.18,0,0,1,2.56,1,4.79,4.79,0,0,1,.89,3.17v.25a2.39,2.39,0,0,1,0,.28h-5.66a3,3,0,0,0,.75,2,2.74,2.74,0,0,0,2,.67,5.37,5.37,0,0,0,1.31-.14,4.45,4.45,0,0,0,.8-.26l.21,1.24a4.43,4.43,0,0,1-.95.3,6.65,6.65,0,0,1-1.54.16,4.83,4.83,0,0,1-1.87-.33,3.48,3.48,0,0,1-1.3-.9,3.66,3.66,0,0,1-.76-1.36,5.77,5.77,0,0,1-.25-1.73m5.68-.81a2.48,2.48,0,0,0-.5-1.65,1.73,1.73,0,0,0-1.42-.64,1.94,1.94,0,0,0-.9.2,2.09,2.09,0,0,0-.66.52,2.29,2.29,0,0,0-.42.73,3.53,3.53,0,0,0-.2.84Z"/><path class="cls-4" d="M135.83,180.62a4.53,4.53,0,0,1-1.76-.32,3.53,3.53,0,0,1-1.27-.89A3.7,3.7,0,0,1,132,178a5.6,5.6,0,0,1-.26-1.74,5.29,5.29,0,0,1,.28-1.75,4.13,4.13,0,0,1,.79-1.38,3.5,3.5,0,0,1,1.25-.91,4,4,0,0,1,1.65-.33,6.69,6.69,0,0,1,1.11.09,5.22,5.22,0,0,1,1.06.3l-.33,1.26a3.5,3.5,0,0,0-.77-.25,4.36,4.36,0,0,0-.93-.1,2.35,2.35,0,0,0-1.9.78,3.44,3.44,0,0,0-.66,2.27,4.65,4.65,0,0,0,.15,1.23,2.5,2.5,0,0,0,.48,1,2.13,2.13,0,0,0,.83.61,3.22,3.22,0,0,0,1.24.21,4.65,4.65,0,0,0,1.07-.11,3.79,3.79,0,0,0,.75-.24l.21,1.24a1.58,1.58,0,0,1-.37.15,4.76,4.76,0,0,1-.54.13l-.64.1a6.22,6.22,0,0,1-.66,0"/><path class="cls-4" d="M147.06,176.29a5.23,5.23,0,0,1-.28,1.78,4.09,4.09,0,0,1-.8,1.37,3.55,3.55,0,0,1-1.23.88,4.07,4.07,0,0,1-3.12,0,3.55,3.55,0,0,1-1.24-.88,4.1,4.1,0,0,1-.8-1.37,5.67,5.67,0,0,1,0-3.56,4.09,4.09,0,0,1,.8-1.38,3.56,3.56,0,0,1,1.24-.88,4.07,4.07,0,0,1,3.12,0,3.56,3.56,0,0,1,1.23.88,4.07,4.07,0,0,1,.8,1.38,5.24,5.24,0,0,1,.28,1.77m-1.54,0a3.56,3.56,0,0,0-.63-2.22,2.19,2.19,0,0,0-3.42,0,4.23,4.23,0,0,0,0,4.44,2.19,2.19,0,0,0,3.42,0,3.56,3.56,0,0,0,.63-2.22"/><path class="cls-4" d="M149.48,172.39c.34-.08.79-.17,1.34-.27a11.37,11.37,0,0,1,1.93-.14,3.63,3.63,0,0,1,1.34.21,2.33,2.33,0,0,1,.91.63l.35-.22a3.79,3.79,0,0,1,.59-.28,6,6,0,0,1,.78-.24,4,4,0,0,1,.92-.1,3.74,3.74,0,0,1,1.56.28,2.26,2.26,0,0,1,.95.79,3,3,0,0,1,.46,1.21,9,9,0,0,1,.12,1.53v4.65h-1.48V176.1a9.18,9.18,0,0,0-.07-1.26,2.46,2.46,0,0,0-.27-.88,1.24,1.24,0,0,0-.54-.52,2,2,0,0,0-.88-.17,3.28,3.28,0,0,0-1.23.2,2.41,2.41,0,0,0-.66.36,5.41,5.41,0,0,1,.19.91,8.19,8.19,0,0,1,.06,1v4.65h-1.48V176.1a8.52,8.52,0,0,0-.08-1.26A2.53,2.53,0,0,0,154,174a1.22,1.22,0,0,0-.54-.52,1.94,1.94,0,0,0-.87-.17h-.48l-.49,0-.42.06-.25,0v7h-1.48Z"/><path class="cls-4" d="M163.52,172.39c.34-.08.79-.17,1.34-.27a11.37,11.37,0,0,1,1.93-.14,3.63,3.63,0,0,1,1.34.21,2.33,2.33,0,0,1,.91.63l.35-.22a3.79,3.79,0,0,1,.59-.28,6,6,0,0,1,.78-.24,4,4,0,0,1,.92-.1,3.74,3.74,0,0,1,1.56.28,2.26,2.26,0,0,1,.95.79,3,3,0,0,1,.46,1.21,9,9,0,0,1,.12,1.53v4.65h-1.48V176.1a9.18,9.18,0,0,0-.07-1.26,2.46,2.46,0,0,0-.27-.88,1.24,1.24,0,0,0-.54-.52,2,2,0,0,0-.88-.17,3.28,3.28,0,0,0-1.23.2,2.41,2.41,0,0,0-.66.36,5.41,5.41,0,0,1,.19.91,8.19,8.19,0,0,1,.06,1v4.65H168.4V176.1a8.52,8.52,0,0,0-.08-1.26A2.53,2.53,0,0,0,168,174a1.22,1.22,0,0,0-.54-.52,1.94,1.94,0,0,0-.87-.17h-.48l-.49,0-.42.06-.25,0v7h-1.48Z"/><path class="cls-4" d="M177.09,176.3a5.33,5.33,0,0,1,.32-1.92,4,4,0,0,1,.84-1.36,3.42,3.42,0,0,1,1.21-.81,3.79,3.79,0,0,1,1.4-.27,3.18,3.18,0,0,1,2.56,1,4.79,4.79,0,0,1,.89,3.17v.25a2.14,2.14,0,0,1,0,.28h-5.66a3,3,0,0,0,.75,2,2.74,2.74,0,0,0,2,.67,5.37,5.37,0,0,0,1.31-.14,4.52,4.52,0,0,0,.8-.26l.21,1.24a4.43,4.43,0,0,1-.95.3,6.66,6.66,0,0,1-1.54.16,4.84,4.84,0,0,1-1.87-.33,3.46,3.46,0,0,1-1.3-.9,3.64,3.64,0,0,1-.76-1.36,5.73,5.73,0,0,1-.25-1.73m5.68-.81a2.48,2.48,0,0,0-.5-1.65,1.73,1.73,0,0,0-1.42-.64,1.94,1.94,0,0,0-.9.2,2.15,2.15,0,0,0-.66.52,2.39,2.39,0,0,0-.42.73,3.65,3.65,0,0,0-.2.84Z"/><path class="cls-4" d="M189.83,172l.44,0,.49.06.44.08.29.07-.25,1.29a4.86,4.86,0,0,0-1.62-.24,3.89,3.89,0,0,0-.82.09l-.54.12v7h-1.48V172.5a10.1,10.1,0,0,1,1.31-.36,8.31,8.31,0,0,1,1.75-.17"/><path class="cls-4" d="M196.85,180.62a4.54,4.54,0,0,1-1.76-.32,3.53,3.53,0,0,1-1.27-.89A3.7,3.7,0,0,1,193,178a5.68,5.68,0,0,1-.25-1.74,5.26,5.26,0,0,1,.28-1.75,4.13,4.13,0,0,1,.79-1.38,3.51,3.51,0,0,1,1.25-.91,4,4,0,0,1,1.65-.33,6.67,6.67,0,0,1,1.11.09,5.23,5.23,0,0,1,1.07.3l-.33,1.26a3.52,3.52,0,0,0-.77-.25,4.32,4.32,0,0,0-.93-.1,2.35,2.35,0,0,0-1.9.78,3.44,3.44,0,0,0-.66,2.27,4.65,4.65,0,0,0,.15,1.23,2.53,2.53,0,0,0,.48,1,2.15,2.15,0,0,0,.84.61,3.22,3.22,0,0,0,1.24.21,4.66,4.66,0,0,0,1.07-.11,3.84,3.84,0,0,0,.75-.24l.21,1.24a1.59,1.59,0,0,1-.37.15,4.67,4.67,0,0,1-.54.13l-.64.1a6.14,6.14,0,0,1-.66,0"/><path class="cls-4" d="M200.53,176.3a5.33,5.33,0,0,1,.32-1.92,4,4,0,0,1,.84-1.36,3.42,3.42,0,0,1,1.21-.81,3.79,3.79,0,0,1,1.4-.27,3.18,3.18,0,0,1,2.56,1,4.79,4.79,0,0,1,.89,3.17v.25a2.14,2.14,0,0,1,0,.28h-5.66a3,3,0,0,0,.75,2,2.74,2.74,0,0,0,2,.67,5.37,5.37,0,0,0,1.31-.14,4.52,4.52,0,0,0,.8-.26l.21,1.24a4.43,4.43,0,0,1-.95.3,6.66,6.66,0,0,1-1.54.16,4.84,4.84,0,0,1-1.87-.33,3.46,3.46,0,0,1-1.3-.9,3.64,3.64,0,0,1-.76-1.36,5.73,5.73,0,0,1-.25-1.73m5.68-.81a2.48,2.48,0,0,0-.5-1.65,1.73,1.73,0,0,0-1.42-.64,1.94,1.94,0,0,0-.9.2,2.15,2.15,0,0,0-.66.52,2.42,2.42,0,0,0-.42.73,3.65,3.65,0,0,0-.2.84Z"/><path class="cls-4" d="M57.65,75.24a9.91,9.91,0,0,0,3.22-1.51,10.83,10.83,0,0,0,3.47-4.17,12.9,12.9,0,0,0,1.22-5.63,12.52,12.52,0,0,0-1.11-5.21,11.61,11.61,0,0,0-3.12-4.13A9.08,9.08,0,0,0,58,52.82a16.68,16.68,0,0,0-4.58-.54H42.92V75.69h9.51a22.49,22.49,0,0,0,5.23-.45M45.9,72.76V55.23h7.36a14.33,14.33,0,0,1,3.86.39,6.26,6.26,0,0,1,2.33,1.3,8,8,0,0,1,2.16,3,10.11,10.11,0,0,1,.76,3.95,9.17,9.17,0,0,1-2.22,6.59,8.45,8.45,0,0,1-6.36,2.3Z"/><polygon class="cls-4" points="86.22 72.7 74.27 72.7 74.27 65.45 86.22 65.45 86.22 62.42 74.27 62.42 74.27 55.29 86.22 55.29 86.22 52.27 71.23 52.27 71.23 75.69 86.22 75.69 86.22 72.7"/><polygon class="cls-4" points="64.51 84.7 61.51 84.7 61.76 103.87 46.28 84.7 43.02 84.7 43.02 108.11 46.01 108.11 45.77 88.91 61.25 108.11 64.51 108.11 64.51 84.7"/><rect class="cls-4" x="72.43" y="84.7" width="3.02" height="23.41"/><polygon class="cls-4" points="98.74 87.72 98.74 84.7 83.75 84.7 83.75 108.11 98.74 108.11 98.74 105.13 86.78 105.13 86.78 97.88 98.74 97.88 98.74 94.84 86.78 94.84 86.78 87.72 98.74 87.72"/><polygon class="cls-4" points="150.34 102.41 144.82 84.7 142.2 84.7 136.66 102.41 130.12 84.7 127.07 84.7 135.62 108.11 138.04 108.11 143.52 90.59 148.99 108.11 151.41 108.11 159.93 84.7 156.91 84.7 150.34 102.41"/><polygon class="cls-4" points="179.34 87.72 179.34 84.7 164.36 84.7 164.36 108.11 179.34 108.11 179.34 105.13 167.39 105.13 167.39 97.88 179.34 97.88 179.34 94.84 167.39 94.84 167.39 87.72 179.34 87.72"/><polygon class="cls-4" points="43.02 120.14 55.66 120.14 43.02 137.88 43.02 140.54 59.4 140.54 59.4 137.55 46.74 137.55 59.4 119.78 59.4 117.12 43.02 117.12 43.02 120.14"/><path class="cls-4" d="M73.39,117.12,61.77,140.54H65l3.48-7.1H81.4l3.48,7.1h3.27L76.56,117.12Zm6.82,13.48H69.67l5.24-10.1Z"/><polygon class="cls-4" points="139.31 117.12 135.03 117.12 121.44 129.2 121.44 117.12 118.46 117.12 118.46 140.54 121.44 140.54 121.44 133.34 124.33 130.82 134.78 140.54 139.32 140.54 126.52 128.79 139.31 117.12"/><path class="cls-4" d="M101.53,117.12,89.92,140.54h3.23l3.48-7.1h12.91l3.48,7.1h3.27L104.7,117.12Zm6.82,13.48H97.81l5.24-10.1Z"/><path class="cls-4" d="M114,108.79c3.2,0,5.66-.88,7.32-2.63s2.46-4.27,2.46-7.59V84.7h-3V98.57c0,2.52-.55,4.38-1.64,5.52s-2.8,1.69-5.14,1.69c-2.55,0-4.4-.56-5.5-1.67s-1.66-3-1.66-5.55V84.7h-3V98.57c0,3.39.85,6,2.53,7.66s4.25,2.56,7.63,2.56"/></g><path class="cls-4" d="M50.4,167.13a4.93,4.93,0,0,1-.34,1.91,3.54,3.54,0,0,1-1,1.35,4.11,4.11,0,0,1-1.52.8,7,7,0,0,1-2,.27q-.51,0-1.19,0a9.74,9.74,0,0,1-1.34-.18V163a11.13,11.13,0,0,1,1.37-.16q.71,0,1.22,0a7.4,7.4,0,0,1,2,.24,4,4,0,0,1,1.51.76,3.42,3.42,0,0,1,1,1.34A5.07,5.07,0,0,1,50.4,167.13Zm-5.48,2.67.31,0h.42a2.79,2.79,0,0,0,2.11-.72,2.75,2.75,0,0,0,.69-2,2.37,2.37,0,0,0-2.73-2.68h-.4l-.39,0Z"/><path class="cls-4" d="M53.2,162.93h1.89v8.41H53.2Z"/><path class="cls-4" d="M62.35,164.39a2.31,2.31,0,0,0-1.91.73,3.12,3.12,0,0,0-.59,2,4,4,0,0,0,.15,1.12,2.48,2.48,0,0,0,.44.87,2,2,0,0,0,.73.56,2.42,2.42,0,0,0,1,.2h.54a2.51,2.51,0,0,0,.39,0V166.9H65v4.16a7.12,7.12,0,0,1-1.09.29,9.56,9.56,0,0,1-1.86.15,4.82,4.82,0,0,1-1.72-.29,3.59,3.59,0,0,1-1.32-.85,3.79,3.79,0,0,1-.84-1.37,5.39,5.39,0,0,1-.3-1.86,5,5,0,0,1,.33-1.87,4,4,0,0,1,.9-1.38,3.78,3.78,0,0,1,1.34-.86,4.61,4.61,0,0,1,1.64-.29,6.64,6.64,0,0,1,1.07.08A6.93,6.93,0,0,1,64,163a3.85,3.85,0,0,1,.57.21l.32.17-.55,1.52a5,5,0,0,0-.89-.36A3.82,3.82,0,0,0,62.35,164.39Z"/><path class="cls-4" d="M68,162.93h1.89v8.41H68Z"/><path class="cls-4" d="M79.27,162.93v1.61H76.73v6.8H74.84v-6.8H72.3v-1.61Z"/><path class="cls-4" d="M86.35,171.35q-.14-.44-.3-.9l-.32-.92H82.44l-.32.92q-.16.46-.3.9h-2q.47-1.36.9-2.51t.83-2.17q.41-1,.8-1.94t.82-1.79H85q.41.87.82,1.79t.81,1.94q.41,1,.84,2.17t.9,2.51Zm-2.28-6.51-.19.5-.28.73-.35.91c-.13.33-.26.68-.39,1h2.41l-.37-1q-.18-.5-.34-.91l-.29-.73Z"/><path class="cls-4" d="M96.29,169.72v1.63H90.67v-8.41h1.89v6.79Z"/><path class="cls-4" d="M106.68,171.52a4.09,4.09,0,0,1-3.13-1.14,4.55,4.55,0,0,1-1.07-3.24,5,5,0,0,1,.33-1.86,4,4,0,0,1,.9-1.38,3.75,3.75,0,0,1,1.36-.86,4.9,4.9,0,0,1,1.71-.29,5.48,5.48,0,0,1,1,.08,6.43,6.43,0,0,1,.76.18,3.81,3.81,0,0,1,.55.21l.32.17-.55,1.53a4.61,4.61,0,0,0-.9-.35,4.3,4.3,0,0,0-1.17-.15,2.57,2.57,0,0,0-.86.15,1.94,1.94,0,0,0-.74.47,2.33,2.33,0,0,0-.52.83,3.48,3.48,0,0,0-.19,1.24,4.42,4.42,0,0,0,.13,1.09,2.3,2.3,0,0,0,.41.87,2,2,0,0,0,.75.58,2.66,2.66,0,0,0,1.12.21,5.1,5.1,0,0,0,.74,0,5.6,5.6,0,0,0,.58-.12,3.13,3.13,0,0,0,.45-.15l.35-.16.52,1.52a4.45,4.45,0,0,1-1.13.44A6.57,6.57,0,0,1,106.68,171.52Z"/><path class="cls-4" d="M119.64,167.13a5.18,5.18,0,0,1-.32,1.9,3.92,3.92,0,0,1-.88,1.37,3.61,3.61,0,0,1-1.33.83,4.82,4.82,0,0,1-1.66.28,4.7,4.7,0,0,1-1.63-.28,3.73,3.73,0,0,1-1.34-.83,3.9,3.9,0,0,1-.9-1.37,5.1,5.1,0,0,1-.33-1.9,4.93,4.93,0,0,1,.34-1.9,4,4,0,0,1,.92-1.38,3.78,3.78,0,0,1,1.34-.84,4.6,4.6,0,0,1,1.6-.28,4.72,4.72,0,0,1,1.63.28,3.7,3.7,0,0,1,1.34.84,3.94,3.94,0,0,1,.9,1.38A5.08,5.08,0,0,1,119.64,167.13Zm-6.42,0a3.81,3.81,0,0,0,.15,1.12,2.54,2.54,0,0,0,.44.86,1.92,1.92,0,0,0,.7.55,2.39,2.39,0,0,0,1.89,0,1.92,1.92,0,0,0,.7-.55,2.55,2.55,0,0,0,.44-.86,3.83,3.83,0,0,0,.15-1.12,3.89,3.89,0,0,0-.15-1.12,2.56,2.56,0,0,0-.44-.86,1.93,1.93,0,0,0-.7-.55,2.22,2.22,0,0,0-.94-.19,2.15,2.15,0,0,0-.95.2,2,2,0,0,0-.7.56,2.54,2.54,0,0,0-.44.86A3.83,3.83,0,0,0,113.22,167.13Z"/><path class="cls-4" d="M124.66,162.93q.22.4.5,1t.6,1.28q.31.69.61,1.4l.57,1.35.57-1.35q.3-.72.62-1.4t.6-1.28q.29-.59.51-1H131q.12.84.22,1.88t.18,2.16q.08,1.12.14,2.25t.12,2.12h-1.84q0-1.23-.1-2.67t-.18-2.91l-.49,1.13-.53,1.24-.51,1.18-.41,1h-1.32l-.41-1-.51-1.18-.53-1.24-.49-1.13q-.12,1.47-.18,2.91t-.1,2.67h-1.85q0-1,.12-2.12t.15-2.25q.08-1.12.18-2.16t.22-1.88Z"/><path class="cls-4" d="M136.77,162.93q.22.4.5,1t.6,1.28q.31.69.61,1.4l.57,1.35.57-1.35q.3-.72.61-1.4t.6-1.28q.29-.59.51-1h1.72q.12.84.22,1.88t.18,2.16q.08,1.12.15,2.25t.12,2.12h-1.84q0-1.23-.1-2.67t-.18-2.91l-.49,1.13-.53,1.24-.51,1.18-.41,1h-1.32l-.41-1-.51-1.18-.53-1.24-.49-1.13q-.12,1.47-.18,2.91t-.1,2.67h-1.84q0-1,.12-2.12t.15-2.25q.08-1.12.18-2.16t.22-1.88Z"/><path class="cls-4" d="M146.64,171.35v-8.41h5.68v1.59h-3.79v1.65h3.36v1.55h-3.36v2h4.07v1.59Z"/><path class="cls-4" d="M157.67,162.84a5.21,5.21,0,0,1,2.9.67,2.34,2.34,0,0,1,1,2.09,2.37,2.37,0,0,1-.41,1.44,2.68,2.68,0,0,1-1.17.87q.25.32.53.72t.55.85q.27.44.53.92t.47.94H160l-.47-.84q-.24-.42-.49-.83t-.49-.76c-.16-.24-.33-.46-.49-.65h-.93v3.07h-1.89v-8.29a11.06,11.06,0,0,1,1.28-.17Q157.15,162.84,157.67,162.84Zm.11,1.61h-.37l-.31,0v2.28h.53a3.23,3.23,0,0,0,1.53-.27,1,1,0,0,0,.46-.91.93.93,0,0,0-.47-.88A2.89,2.89,0,0,0,157.78,164.45Z"/><path class="cls-4" d="M168.14,171.52a4.08,4.08,0,0,1-3.13-1.14,4.54,4.54,0,0,1-1.07-3.24,5,5,0,0,1,.33-1.86,4,4,0,0,1,.9-1.38,3.76,3.76,0,0,1,1.36-.86,4.9,4.9,0,0,1,1.71-.29,5.48,5.48,0,0,1,1,.08,6.43,6.43,0,0,1,.76.18,3.76,3.76,0,0,1,.55.21l.32.17-.55,1.53a4.61,4.61,0,0,0-.9-.35,4.29,4.29,0,0,0-1.17-.15,2.57,2.57,0,0,0-.86.15,1.93,1.93,0,0,0-.74.47,2.34,2.34,0,0,0-.52.83,3.5,3.5,0,0,0-.19,1.24,4.42,4.42,0,0,0,.13,1.09,2.29,2.29,0,0,0,.41.87,2,2,0,0,0,.75.58,2.66,2.66,0,0,0,1.12.21,5.1,5.1,0,0,0,.74,0,5.6,5.6,0,0,0,.58-.12,3.13,3.13,0,0,0,.45-.15l.35-.16.52,1.52a4.45,4.45,0,0,1-1.13.44A6.57,6.57,0,0,1,168.14,171.52Z"/><path class="cls-4" d="M173.38,171.35v-8.41h5.68v1.59h-3.79v1.65h3.36v1.55h-3.36v2h4.07v1.59Z"/></svg>